<?xml version="1.0" encoding="UTF-8"?><svg id="Layer_1" xmlns="http://www.w3.org/2000/svg" viewBox="0 0 121.79 118.55"><defs><style>.cls-1{fill:#f7931e;}.cls-2{fill:#fff;}.cls-3{fill:#ccc;}.cls-4{fill:#231f20;}</style></defs><path class="cls-1" d="m15.29,40.62v43.59c0,1.98,1.06,3.81,2.77,4.8l37.75,21.8c1.72.99,3.83.99,5.55,0l37.75-21.8c1.72-.99,2.77-2.82,2.77-4.8v-43.59c0-1.98-1.06-3.81-2.77-4.8L61.37,14.02c-1.72-.99-3.83-.99-5.55,0l-37.75,21.8c-1.72.99-2.77,2.82-2.77,4.8Z"/><circle cx="39.88" cy="53.83" r="12.38"/><circle cx="82.96" cy="53.83" r="12.38"/><path class="cls-4" d="m76.05,81.98c1.29-1.86,2.38-3.84,3.38-5.74h.03s-.01,0-.01,0h0s-.02,0-.02,0c-2.2-.17-4.28-.39-6.33-.8.67.31,1.35.62,2.04.92l-1.37.64-.34.16c.13-.07-.57.29-1.03.45l-1.49.58c-1.98.77-4.02,1.37-6.08,1.86-4.11.97-8.38,1.24-12.4.57-1.98-.39-3.95-.93-5.59-1.96-1.66-.98-3.04-2.29-4-3.89l-3.29,1.9c1.31,2.21,3.23,4,5.37,5.26,2.14,1.31,4.5,1.96,6.84,2.42,4.7.79,9.42.45,13.9-.6,2.24-.53,4.45-1.18,6.58-2l1.6-.62c.27-.1.53-.21.79-.33l.34-.16.37-.17,1.47-.68c-.23.73-.48,1.47-.75,2.21Z"/><circle class="cls-2" cx="43.6" cy="50.95" r="4.33"/><circle class="cls-3" cx="76.5" cy="61.44" r="1.32"/><circle class="cls-3" cx="34.56" cy="61.37" r="1.39"/><circle class="cls-2" cx="87.24" cy="49.1" r="4.33"/></svg>