<?xml version="1.0" encoding="UTF-8"?><svg id="Layer_1" xmlns="http://www.w3.org/2000/svg" xmlns:xlink="http://www.w3.org/1999/xlink" viewBox="0 0 121.79 118.55"><defs><style>.cls-1{fill:url(#linear-gradient);}.cls-2{fill:#fff;}.cls-3{fill:#333;}.cls-4{fill:#231f20;}</style><linearGradient id="linear-gradient" x1="-199.23" y1="250.24" x2="-148.04" y2="336.14" gradientTransform="translate(-236.4 -111.25) rotate(-90)" gradientUnits="userSpaceOnUse"><stop offset="0" stop-color="#93278f"/><stop offset=".22" stop-color="#b0476d"/><stop offset=".63" stop-color="#e37d34"/><stop offset=".82" stop-color="#f7931e"/></linearGradient></defs><polygon class="cls-2" points="100.36 83.71 60.06 106.98 19.76 83.71 19.76 37.18 60.06 13.91 100.36 37.18 100.36 83.71"/><path class="cls-1" d="m22.76,38.91l37.3-21.54,37.3,21.54v43.07l-37.3,21.54-37.3-21.54v-43.07m-6-3.46v50l43.3,25,43.3-25v-50L60.06,10.44l-43.3,25h0Z"/><circle class="cls-3" cx="39.88" cy="55.25" r="12.38"/><circle class="cls-3" cx="82.97" cy="55.25" r="12.38"/><path class="cls-4" d="m78.08,83.77c1.29-1.86,2.38-3.84,3.38-5.74h.03s-.01,0-.01,0h0s-.02,0-.02,0c-2.2-.17-4.28-.39-6.33-.8.67.31,1.35.62,2.04.92l-1.37.64-.34.16c.13-.07-.57.29-1.03.45l-1.49.58c-1.98.77-4.02,1.37-6.08,1.86-4.11.97-8.38,1.24-12.4.57-1.98-.39-3.95-.93-5.59-1.96-1.66-.98-3.04-2.29-4-3.89l-3.29,1.9c1.31,2.21,3.23,4,5.37,5.26,2.14,1.31,4.5,1.96,6.84,2.42,4.7.79,9.42.45,13.9-.6,2.24-.53,4.45-1.18,6.58-2l1.6-.62c.27-.1.53-.21.79-.33l.34-.16.37-.17,1.47-.68c-.23.73-.48,1.47-.75,2.21Z"/><circle class="cls-2" cx="44.13" cy="53.17" r="4.33"/><circle class="cls-2" cx="86.01" cy="50.39" r="4.33"/></svg>