<?xml version="1.0" encoding="UTF-8"?><svg id="Layer_1" xmlns="http://www.w3.org/2000/svg" xmlns:xlink="http://www.w3.org/1999/xlink" viewBox="0 0 121.79 118.55"><defs><style>.cls-1{fill:none;}.cls-2{fill:url(#linear-gradient);}.cls-3{fill:url(#Sienna_Gold_Orange);}</style><linearGradient id="linear-gradient" x1="84.71" y1="-33.7" x2="135.89" y2="52.2" gradientTransform="translate(47.54 172.69) rotate(-90)" gradientUnits="userSpaceOnUse"><stop offset="0" stop-color="#93278f"/><stop offset=".22" stop-color="#b0476d"/><stop offset=".63" stop-color="#e37d34"/><stop offset=".82" stop-color="#f7931e"/></linearGradient><linearGradient id="Sienna_Gold_Orange" x1="35.02" y1="60.37" x2="82.63" y2="60.37" gradientUnits="userSpaceOnUse"><stop offset="0" stop-color="#a87030"/><stop offset=".34" stop-color="#fab217"/><stop offset=".35" stop-color="#f9af19"/><stop offset=".55" stop-color="#f49834"/><stop offset=".67" stop-color="#f3903f"/><stop offset="1" stop-color="#a84927"/></linearGradient></defs><polygon class="cls-1" points="100.36 83.71 60.06 106.98 19.76 83.71 19.76 37.18 60.06 13.91 100.36 37.18 100.36 83.71"/><path class="cls-2" d="m22.76,38.91l37.3-21.54,37.3,21.54v43.07l-37.3,21.54-37.3-21.54v-43.07m-6-3.46v50l43.3,25,43.3-25v-50L60.06,10.44l-43.3,25h0Z"/><path class="cls-3" d="m54.54,80.34l-12.86-34.43c-1.22-3.33-2.82-4.54-5.82-4.93-.58-.13-.83-.45-.83-.96,0-.64.45-.96.9-.96h16.06c.58,0,.96.38.96.96,0,.51-.32.96-.9.96-1.66,0-3.14.58-3.14,2.37,0,.64.06,1.28.38,2.11l8.19,22.46c.77,2.11,1.86,4.74,2.18,6.98,0,.19.06.26.13.26.13,0,.13-.06.19-.26.45-1.6,1.09-3.14,1.79-4.8,3.01-6.72,7.68-18.05,10.75-24.83.26-.7.45-1.34.45-1.86,0-2.18-2.69-2.37-4.35-2.43-.58-.06-.9-.45-.9-.96,0-.58.38-.96.96-.96h12.99c.51,0,.96.32.96.96,0,.51-.26.9-.83.96-3.14.32-4.16,1.79-5.44,4.8l-14.91,33.79c-.7,1.54-2.37,2.11-3.9,2.11-1.73,0-2.69-.45-3.01-1.34Z"/></svg>